<svg width="64" height="64" viewBox="0 0 64 64" fill="none" xmlns="http://www.w3.org/2000/svg">
<path fill-rule="evenodd" clip-rule="evenodd" d="M4 56C4 56 0 56 0 52C0 48 4 36 24 36C44 36 48 48 48 52C48 56 44 56 44 56H4ZM24 32C27.1826 32 30.2348 30.7357 32.4853 28.4853C34.7357 26.2348 36 23.1826 36 20C36 16.8174 34.7357 13.7652 32.4853 11.5147C30.2348 9.26428 27.1826 8 24 8C20.8174 8 17.7652 9.26428 15.5147 11.5147C13.2643 13.7652 12 16.8174 12 20C12 23.1826 13.2643 26.2348 15.5147 28.4853C17.7652 30.7357 20.8174 32 24 32ZM52 38C52 37.4696 52.2107 36.9609 52.5858 36.5858C52.9609 36.2107 53.4696 36 54 36H62C62.5304 36 63.0391 36.2107 63.4142 36.5858C63.7893 36.9609 64 37.4696 64 38C64 38.5304 63.7893 39.0391 63.4142 39.4142C63.0391 39.7893 62.5304 40 62 40H54C53.4696 40 52.9609 39.7893 52.5858 39.4142C52.2107 39.0391 52 38.5304 52 38ZM44 26C44 25.4696 44.2107 24.9609 44.5858 24.5858C44.9609 24.2107 45.4696 24 46 24H62C62.5304 24 63.0391 24.2107 63.4142 24.5858C63.7893 24.9609 64 25.4696 64 26C64 26.5304 63.7893 27.0391 63.4142 27.4142C63.0391 27.7893 62.5304 28 62 28H46C45.4696 28 44.9609 27.7893 44.5858 27.4142C44.2107 27.0391 44 26.5304 44 26ZM44 14C44 13.4696 44.2107 12.9609 44.5858 12.5858C44.9609 12.2107 45.4696 12 46 12H62C62.5304 12 63.0391 12.2107 63.4142 12.5858C63.7893 12.9609 64 13.4696 64 14C64 14.5304 63.7893 15.0391 63.4142 15.4142C63.0391 15.7893 62.5304 16 62 16H46C45.4696 16 44.9609 15.7893 44.5858 15.4142C44.2107 15.0391 44 14.5304 44 14ZM52 50C52 49.4696 52.2107 48.9609 52.5858 48.5858C52.9609 48.2107 53.4696 48 54 48H62C62.5304 48 63.0391 48.2107 63.4142 48.5858C63.7893 48.9609 64 49.4696 64 50C64 50.5304 63.7893 51.0391 63.4142 51.4142C63.0391 51.7893 62.5304 52 62 52H54C53.4696 52 52.9609 51.7893 52.5858 51.4142C52.2107 51.0391 52 50.5304 52 50Z" fill="#000F24"/>
</svg>
